<svg id="visual" viewBox="0 0 900 150" width="900" height="150" xmlns="http://www.w3.org/2000/svg" xmlns:xlink="http://www.w3.org/1999/xlink" version="1.1"><rect x="0" y="0" width="900" height="150" fill="#0f172a"></rect><path d="M0 59L21.5 62.8C43 66.7 86 74.3 128.8 74.2C171.7 74 214.3 66 257.2 63.2C300 60.3 343 62.7 385.8 70C428.7 77.3 471.3 89.7 514.2 86.3C557 83 600 64 642.8 54.5C685.7 45 728.3 45 771.2 45.3C814 45.7 857 46.3 878.5 46.7L900 47L900 151L878.5 151C857 151 814 151 771.2 151C728.3 151 685.7 151 642.8 151C600 151 557 151 514.2 151C471.3 151 428.7 151 385.8 151C343 151 300 151 257.2 151C214.3 151 171.7 151 128.8 151C86 151 43 151 21.5 151L0 151Z" fill="#d4af37" stroke-linecap="round" stroke-linejoin="miter"></path></svg>