<svg id="visual" viewBox="0 0 900 600" width="900" height="600" xmlns="http://www.w3.org/2000/svg" xmlns:xlink="http://www.w3.org/1999/xlink" version="1.1"><rect x="0" y="0" width="900" height="600" fill="#001220"></rect><defs><linearGradient id="grad1_0" x1="33.3%" y1="100%" x2="100%" y2="0%"><stop offset="20%" stop-color="#001220" stop-opacity="1"></stop><stop offset="80%" stop-color="#001220" stop-opacity="1"></stop></linearGradient></defs><defs><linearGradient id="grad2_0" x1="0%" y1="100%" x2="66.7%" y2="0%"><stop offset="20%" stop-color="#001220" stop-opacity="1"></stop><stop offset="80%" stop-color="#001220" stop-opacity="1"></stop></linearGradient></defs><g transform="translate(900, 600)"><path d="M-270.4 0C-269.3 -38.3 -268.1 -76.5 -249.8 -103.5C-231.6 -130.4 -196.2 -146.1 -170.4 -170.4C-144.7 -194.7 -128.6 -227.6 -101.8 -245.8C-75 -263.9 -37.5 -267.1 0 -270.4L0 0Z" fill="#FBAE3C"></path></g><g transform="translate(0, 0)"><path d="M270.4 0C245.9 28.2 221.5 56.4 207.9 86.1C194.3 115.8 191.6 147.1 176.8 176.8C161.9 206.4 135 234.5 103.5 249.8C72 265.2 36 267.8 0 270.4L0 0Z" fill="#FBAE3C"></path></g></svg>