<svg id="visual" viewBox="0 0 900 600" width="900" height="600" xmlns="http://www.w3.org/2000/svg" xmlns:xlink="http://www.w3.org/1999/xlink" version="1.1"><rect x="0" y="0" width="900" height="600" fill="#0f172a"></rect><g fill="#b8962e"><circle r="41" cx="796" cy="472"></circle><circle r="18" cx="649" cy="117"></circle><circle r="27" cx="359" cy="120"></circle><circle r="30" cx="122" cy="388"></circle><circle r="29" cx="28" cy="195"></circle><circle r="19" cx="593" cy="547"></circle><circle r="23" cx="273" cy="263"></circle><circle r="24" cx="779" cy="372"></circle><circle r="23" cx="486" cy="49"></circle><circle r="26" cx="236" cy="149"></circle><circle r="30" cx="432" cy="594"></circle><circle r="30" cx="674" cy="588"></circle><circle r="19" cx="702" cy="271"></circle><circle r="36" cx="177" cy="226"></circle><circle r="17" cx="128" cy="510"></circle><circle r="30" cx="899" cy="189"></circle><circle r="29" cx="488" cy="277"></circle><circle r="39" cx="614" cy="313"></circle><circle r="35" cx="755" cy="49"></circle><circle r="26" cx="612" cy="29"></circle><circle r="25" cx="379" cy="230"></circle><circle r="22" cx="799" cy="217"></circle><circle r="32" cx="893" cy="58"></circle><circle r="25" cx="40" cy="508"></circle><circle r="23" cx="506" cy="438"></circle><circle r="17" cx="370" cy="449"></circle><circle r="36" cx="16" cy="386"></circle><circle r="22" cx="567" cy="210"></circle><circle r="18" cx="312" cy="536"></circle><circle r="25" cx="283" cy="69"></circle><circle r="35" cx="287" cy="444"></circle><circle r="34" cx="254" cy="344"></circle><circle r="32" cx="665" cy="375"></circle><circle r="33" cx="893" cy="463"></circle><circle r="29" cx="819" cy="130"></circle><circle r="35" cx="69" cy="80"></circle><circle r="17" cx="799" cy="585"></circle><circle r="33" cx="381" cy="359"></circle><circle r="34" cx="204" cy="417"></circle><circle r="19" cx="135" cy="301"></circle><circle r="38" cx="898" cy="566"></circle><circle r="17" cx="685" cy="459"></circle><circle r="26" cx="239" cy="581"></circle><circle r="29" cx="37" cy="279"></circle><circle r="21" cx="821" cy="302"></circle><circle r="25" cx="116" cy="598"></circle><circle r="22" cx="167" cy="57"></circle><circle r="36" cx="440" cy="139"></circle><circle r="33" cx="546" cy="131"></circle><circle r="17" cx="400" cy="46"></circle><circle r="35" cx="425" cy="514"></circle><circle r="18" cx="478" cy="361"></circle><circle r="37" cx="723" cy="170"></circle><circle r="32" cx="504" cy="528"></circle><circle r="27" cx="7" cy="586"></circle><circle r="34" cx="890" cy="358"></circle><circle r="32" cx="212" cy="504"></circle><circle r="34" cx="117" cy="170"></circle><circle r="24" cx="734" cy="529"></circle><circle r="24" cx="585" cy="453"></circle><circle r="18" cx="19" cy="5"></circle><circle r="33" cx="827" cy="8"></circle></g></svg>