<svg id="visual" viewBox="0 0 900 600" width="900" height="600" xmlns="http://www.w3.org/2000/svg" xmlns:xlink="http://www.w3.org/1999/xlink" version="1.1"><rect x="0" y="0" width="900" height="600" fill="#0f172a"></rect><path d="M0 482L11.5 482.3C23 482.7 46 483.3 69 477.2C92 471 115 458 138.2 449C161.3 440 184.7 435 207.8 438.3C231 441.7 254 453.3 277 459.2C300 465 323 465 346 475.3C369 485.7 392 506.3 415.2 518C438.3 529.7 461.7 532.3 484.8 524.3C508 516.3 531 497.7 554 496.3C577 495 600 511 623 512C646 513 669 499 692.2 497.3C715.3 495.7 738.7 506.3 761.8 505.8C785 505.3 808 493.7 831 484.3C854 475 877 468 888.5 464.5L900 461L900 601L888.5 601C877 601 854 601 831 601C808 601 785 601 761.8 601C738.7 601 715.3 601 692.2 601C669 601 646 601 623 601C600 601 577 601 554 601C531 601 508 601 484.8 601C461.7 601 438.3 601 415.2 601C392 601 369 601 346 601C323 601 300 601 277 601C254 601 231 601 207.8 601C184.7 601 161.3 601 138.2 601C115 601 92 601 69 601C46 601 23 601 11.5 601L0 601Z" fill="#d4af37" stroke-linecap="round" stroke-linejoin="miter"></path></svg>